<svg viewBox="0 0 1920 1080" xmlns="http://www.w3.org/2000/svg" role="img" aria-hidden="true">
<rect width="1920" height="1080" fill="#275084"/>
<line x1="0" y1="0" x2="0" y2="1080" stroke="rgba(255,255,255,0.16)" stroke-width="1"/>
<line x1="137" y1="0" x2="137" y2="1080" stroke="rgba(255,255,255,0.16)" stroke-width="1"/>
<line x1="274" y1="0" x2="274" y2="1080" stroke="rgba(255,255,255,0.16)" stroke-width="1"/>
<line x1="411" y1="0" x2="411" y2="1080" stroke="rgba(255,255,255,0.16)" stroke-width="1"/>
<line x1="548" y1="0" x2="548" y2="1080" stroke="rgba(255,255,255,0.16)" stroke-width="1"/>
<line x1="685" y1="0" x2="685" y2="1080" stroke="rgba(255,255,255,0.16)" stroke-width="1"/>
<line x1="822" y1="0" x2="822" y2="1080" stroke="rgba(255,255,255,0.16)" stroke-width="1"/>
<line x1="959" y1="0" x2="959" y2="1080" stroke="rgba(255,255,255,0.16)" stroke-width="1"/>
<line x1="1096" y1="0" x2="1096" y2="1080" stroke="rgba(255,255,255,0.16)" stroke-width="1"/>
<line x1="1233" y1="0" x2="1233" y2="1080" stroke="rgba(255,255,255,0.16)" stroke-width="1"/>
<line x1="1370" y1="0" x2="1370" y2="1080" stroke="rgba(255,255,255,0.16)" stroke-width="1"/>
<line x1="1507" y1="0" x2="1507" y2="1080" stroke="rgba(255,255,255,0.16)" stroke-width="1"/>
<line x1="1644" y1="0" x2="1644" y2="1080" stroke="rgba(255,255,255,0.16)" stroke-width="1"/>
<line x1="1781" y1="0" x2="1781" y2="1080" stroke="rgba(255,255,255,0.16)" stroke-width="1"/>
<line x1="1918" y1="0" x2="1918" y2="1080" stroke="rgba(255,255,255,0.16)" stroke-width="1"/>
<line x1="2055" y1="0" x2="2055" y2="1080" stroke="rgba(255,255,255,0.16)" stroke-width="1"/>
<line x1="0" y1="0" x2="1920" y2="0" stroke="rgba(255,255,255,0.16)" stroke-width="1"/>
<line x1="0" y1="137" x2="1920" y2="137" stroke="rgba(255,255,255,0.16)" stroke-width="1"/>
<line x1="0" y1="274" x2="1920" y2="274" stroke="rgba(255,255,255,0.16)" stroke-width="1"/>
<line x1="0" y1="411" x2="1920" y2="411" stroke="rgba(255,255,255,0.16)" stroke-width="1"/>
<line x1="0" y1="548" x2="1920" y2="548" stroke="rgba(255,255,255,0.16)" stroke-width="1"/>
<line x1="0" y1="685" x2="1920" y2="685" stroke="rgba(255,255,255,0.16)" stroke-width="1"/>
<line x1="0" y1="822" x2="1920" y2="822" stroke="rgba(255,255,255,0.16)" stroke-width="1"/>
<line x1="0" y1="959" x2="1920" y2="959" stroke="rgba(255,255,255,0.16)" stroke-width="1"/>
<line x1="0" y1="1096" x2="1920" y2="1096" stroke="rgba(255,255,255,0.16)" stroke-width="1"/>
<rect x="1564" y="64" width="356" height="307" fill="none" stroke="#70C7D5" stroke-width="2" opacity="0.55"/>
<rect x="1014" y="779" width="418" height="192" fill="none" stroke="#0F70B7" stroke-width="2" opacity="0.3"/>
<rect x="1334" y="388" width="518" height="282" fill="none" stroke="#0F70B7" stroke-width="2" opacity="0.55"/>
<rect x="999" y="29" width="395" height="186" fill="none" stroke="#70C7D5" stroke-width="2" opacity="0.3"/>
<rect x="886" y="622" width="252" height="252" fill="#70C7D5" opacity="0.85"/>
<rect x="1425" y="456" width="153" height="153" fill="#0F70B7" opacity="0.85"/>
<line x1="545" y1="0" x2="1477" y2="1080" stroke="#70C7D5" stroke-width="1" opacity="0.25"/>
<line x1="1642" y1="0" x2="468" y2="1080" stroke="#70C7D5" stroke-width="1" opacity="0.25"/>
<line x1="1210" y1="0" x2="209" y2="1080" stroke="#70C7D5" stroke-width="1" opacity="0.25"/>
</svg>