<svg viewBox="0 0 1920 700" xmlns="http://www.w3.org/2000/svg" role="img" aria-hidden="true">
<rect width="1920" height="700" fill="#275084"/>
<line x1="0" y1="0" x2="0" y2="700" stroke="rgba(255,255,255,0.16)" stroke-width="1"/>
<line x1="137" y1="0" x2="137" y2="700" stroke="rgba(255,255,255,0.16)" stroke-width="1"/>
<line x1="274" y1="0" x2="274" y2="700" stroke="rgba(255,255,255,0.16)" stroke-width="1"/>
<line x1="411" y1="0" x2="411" y2="700" stroke="rgba(255,255,255,0.16)" stroke-width="1"/>
<line x1="548" y1="0" x2="548" y2="700" stroke="rgba(255,255,255,0.16)" stroke-width="1"/>
<line x1="685" y1="0" x2="685" y2="700" stroke="rgba(255,255,255,0.16)" stroke-width="1"/>
<line x1="822" y1="0" x2="822" y2="700" stroke="rgba(255,255,255,0.16)" stroke-width="1"/>
<line x1="959" y1="0" x2="959" y2="700" stroke="rgba(255,255,255,0.16)" stroke-width="1"/>
<line x1="1096" y1="0" x2="1096" y2="700" stroke="rgba(255,255,255,0.16)" stroke-width="1"/>
<line x1="1233" y1="0" x2="1233" y2="700" stroke="rgba(255,255,255,0.16)" stroke-width="1"/>
<line x1="1370" y1="0" x2="1370" y2="700" stroke="rgba(255,255,255,0.16)" stroke-width="1"/>
<line x1="1507" y1="0" x2="1507" y2="700" stroke="rgba(255,255,255,0.16)" stroke-width="1"/>
<line x1="1644" y1="0" x2="1644" y2="700" stroke="rgba(255,255,255,0.16)" stroke-width="1"/>
<line x1="1781" y1="0" x2="1781" y2="700" stroke="rgba(255,255,255,0.16)" stroke-width="1"/>
<line x1="1918" y1="0" x2="1918" y2="700" stroke="rgba(255,255,255,0.16)" stroke-width="1"/>
<line x1="2055" y1="0" x2="2055" y2="700" stroke="rgba(255,255,255,0.16)" stroke-width="1"/>
<line x1="0" y1="0" x2="1920" y2="0" stroke="rgba(255,255,255,0.16)" stroke-width="1"/>
<line x1="0" y1="137" x2="1920" y2="137" stroke="rgba(255,255,255,0.16)" stroke-width="1"/>
<line x1="0" y1="274" x2="1920" y2="274" stroke="rgba(255,255,255,0.16)" stroke-width="1"/>
<line x1="0" y1="411" x2="1920" y2="411" stroke="rgba(255,255,255,0.16)" stroke-width="1"/>
<line x1="0" y1="548" x2="1920" y2="548" stroke="rgba(255,255,255,0.16)" stroke-width="1"/>
<line x1="0" y1="685" x2="1920" y2="685" stroke="rgba(255,255,255,0.16)" stroke-width="1"/>
<line x1="0" y1="822" x2="1920" y2="822" stroke="rgba(255,255,255,0.16)" stroke-width="1"/>
<rect x="993" y="267" width="581" height="125" fill="none" stroke="#70C7D5" stroke-width="2" opacity="0.55"/>
<rect x="298" y="481" width="306" height="105" fill="none" stroke="#0F70B7" stroke-width="2" opacity="0.3"/>
<rect x="654" y="394" width="664" height="200" fill="none" stroke="#0F70B7" stroke-width="2" opacity="0.55"/>
<rect x="1001" y="202" width="299" height="174" fill="none" stroke="#70C7D5" stroke-width="2" opacity="0.3"/>
<rect x="1102" y="276" width="258" height="258" fill="#70C7D5" opacity="0.85"/>
<rect x="395" y="271" width="177" height="177" fill="#0F70B7" opacity="0.85"/>
<line x1="1357" y1="0" x2="1645" y2="700" stroke="#70C7D5" stroke-width="1" opacity="0.25"/>
<line x1="1249" y1="0" x2="1404" y2="700" stroke="#70C7D5" stroke-width="1" opacity="0.25"/>
<line x1="180" y1="0" x2="1729" y2="700" stroke="#70C7D5" stroke-width="1" opacity="0.25"/>
</svg>